<svg id="visual" viewBox="0 0 1920 1080" width="1920" height="1080" xmlns="http://www.w3.org/2000/svg" xmlns:xlink="http://www.w3.org/1999/xlink" version="1.1"><path d="M0 259L40 294.5C80 330 160 401 240 410.7C320 420.3 400 368.7 480 337.3C560 306 640 295 720 281.8C800 268.7 880 253.3 960 274.8C1040 296.3 1120 354.7 1200 394.2C1280 433.7 1360 454.3 1440 439.8C1520 425.3 1600 375.7 1680 339.8C1760 304 1840 282 1880 271L1920 260L1920 1081L1880 1081C1840 1081 1760 1081 1680 1081C1600 1081 1520 1081 1440 1081C1360 1081 1280 1081 1200 1081C1120 1081 1040 1081 960 1081C880 1081 800 1081 720 1081C640 1081 560 1081 480 1081C400 1081 320 1081 240 1081C160 1081 80 1081 40 1081L0 1081Z" fill="#ffffff"></path><path d="M0 519L40 502.3C80 485.7 160 452.3 240 461.2C320 470 400 521 480 546C560 571 640 570 720 533.8C800 497.7 880 426.3 960 428.3C1040 430.3 1120 505.7 1200 520.8C1280 536 1360 491 1440 476.5C1520 462 1600 478 1680 490.8C1760 503.7 1840 513.3 1880 518.2L1920 523L1920 1081L1880 1081C1840 1081 1760 1081 1680 1081C1600 1081 1520 1081 1440 1081C1360 1081 1280 1081 1200 1081C1120 1081 1040 1081 960 1081C880 1081 800 1081 720 1081C640 1081 560 1081 480 1081C400 1081 320 1081 240 1081C160 1081 80 1081 40 1081L0 1081Z" fill="#d6dde8"></path><path d="M0 498L40 498C80 498 160 498 240 521.8C320 545.7 400 593.3 480 599.3C560 605.3 640 569.7 720 570.5C800 571.3 880 608.7 960 599.5C1040 590.3 1120 534.7 1200 537.3C1280 540 1360 601 1440 604.7C1520 608.3 1600 554.7 1680 541.5C1760 528.3 1840 555.7 1880 569.3L1920 583L1920 1081L1880 1081C1840 1081 1760 1081 1680 1081C1600 1081 1520 1081 1440 1081C1360 1081 1280 1081 1200 1081C1120 1081 1040 1081 960 1081C880 1081 800 1081 720 1081C640 1081 560 1081 480 1081C400 1081 320 1081 240 1081C160 1081 80 1081 40 1081L0 1081Z" fill="#aebdd2"></path><path d="M0 755L40 738.3C80 721.7 160 688.3 240 682.7C320 677 400 699 480 704.2C560 709.3 640 697.7 720 698.2C800 698.7 880 711.3 960 706.7C1040 702 1120 680 1200 669.2C1280 658.3 1360 658.7 1440 674.5C1520 690.3 1600 721.7 1680 716.7C1760 711.7 1840 670.3 1880 649.7L1920 629L1920 1081L1880 1081C1840 1081 1760 1081 1680 1081C1600 1081 1520 1081 1440 1081C1360 1081 1280 1081 1200 1081C1120 1081 1040 1081 960 1081C880 1081 800 1081 720 1081C640 1081 560 1081 480 1081C400 1081 320 1081 240 1081C160 1081 80 1081 40 1081L0 1081Z" fill="#869ebc"></path><path d="M0 876L40 868.7C80 861.3 160 846.7 240 827.7C320 808.7 400 785.3 480 789.2C560 793 640 824 720 835.3C800 846.7 880 838.3 960 829C1040 819.7 1120 809.3 1200 815C1280 820.7 1360 842.3 1440 838C1520 833.7 1600 803.3 1680 782.7C1760 762 1840 751 1880 745.5L1920 740L1920 1081L1880 1081C1840 1081 1760 1081 1680 1081C1600 1081 1520 1081 1440 1081C1360 1081 1280 1081 1200 1081C1120 1081 1040 1081 960 1081C880 1081 800 1081 720 1081C640 1081 560 1081 480 1081C400 1081 320 1081 240 1081C160 1081 80 1081 40 1081L0 1081Z" fill="#5d80a6"></path><path d="M0 974L40 967.8C80 961.7 160 949.3 240 941.7C320 934 400 931 480 936.5C560 942 640 956 720 952.2C800 948.3 880 926.7 960 916.2C1040 905.7 1120 906.3 1200 909C1280 911.7 1360 916.3 1440 912.7C1520 909 1600 897 1680 904.2C1760 911.3 1840 937.7 1880 950.8L1920 964L1920 1081L1880 1081C1840 1081 1760 1081 1680 1081C1600 1081 1520 1081 1440 1081C1360 1081 1280 1081 1200 1081C1120 1081 1040 1081 960 1081C880 1081 800 1081 720 1081C640 1081 560 1081 480 1081C400 1081 320 1081 240 1081C160 1081 80 1081 40 1081L0 1081Z" fill="#2e6390"></path></svg>